<svg width="421" height="365" viewBox="0 0 421 365" fill="none" xmlns="http://www.w3.org/2000/svg">
<rect width="421" height="365" rx="30" fill="url(#paint0_linear_49_25)"/>
<g filter="url(#filter0_d_49_25)">
<path d="M93 226V191H97.55V223.25H115.6V226H93ZM143.078 191H165.678V193.75H147.628V206.3H163.128V208.6H147.628V223.25H165.678V226H143.078V191ZM196.556 191L212.606 221.05H212.806L229.006 191H232.456V226H227.906V197.65H227.706L211.906 226.6H211.006L195.556 197.45H195.356V226H193.156V191H196.556ZM266.475 191H271.025V226H266.475V191ZM306.131 191L316.831 204.75H317.081L327.631 191H330.281L318.331 206.65L333.481 226H327.831L315.631 210.35H315.431L303.481 226H300.781L314.181 208.55L300.531 191H306.131Z" fill="url(#paint1_linear_49_25)"/>
</g>
<path d="M72.8 257.95C73.67 257.95 74.42 258.13 75.05 258.49C75.68 258.84 76.205 259.36 76.625 260.05L75.62 260.83C75.25 260.19 74.83 259.74 74.36 259.48C73.9 259.21 73.34 259.075 72.68 259.075C72.15 259.075 71.71 259.15 71.36 259.3C71.02 259.45 70.77 259.65 70.61 259.9C70.45 260.14 70.37 260.415 70.37 260.725C70.37 261.075 70.48 261.385 70.7 261.655C70.92 261.915 71.36 262.12 72.02 262.27L74.165 262.75C75.115 262.96 75.775 263.28 76.145 263.71C76.525 264.13 76.715 264.655 76.715 265.285C76.715 265.845 76.555 266.345 76.235 266.785C75.925 267.215 75.485 267.55 74.915 267.79C74.345 268.03 73.675 268.15 72.905 268.15C72.185 268.15 71.55 268.055 71 267.865C70.46 267.665 69.995 267.4 69.605 267.07C69.215 266.74 68.895 266.37 68.645 265.96L69.695 265.105C69.885 265.485 70.13 265.82 70.43 266.11C70.73 266.4 71.09 266.625 71.51 266.785C71.94 266.945 72.43 267.025 72.98 267.025C73.49 267.025 73.93 266.965 74.3 266.845C74.68 266.715 74.97 266.53 75.17 266.29C75.37 266.04 75.47 265.74 75.47 265.39C75.47 265.07 75.365 264.785 75.155 264.535C74.945 264.275 74.55 264.08 73.97 263.95L71.645 263.425C71.035 263.285 70.54 263.095 70.16 262.855C69.79 262.605 69.52 262.315 69.35 261.985C69.19 261.645 69.11 261.28 69.11 260.89C69.11 260.36 69.255 259.875 69.545 259.435C69.845 258.985 70.27 258.625 70.82 258.355C71.38 258.085 72.04 257.95 72.8 257.95ZM84.9294 258.1V268H83.7294V258.1H84.9294ZM102.238 258.1V268H101.098V261.775L101.233 259.165H101.218L97.9629 268H96.9429L93.6879 259.165H93.6729L93.8079 261.775V268H92.6679V258.1H94.5129L96.6879 264.115L97.4379 266.59H97.4679L98.2329 264.13L100.393 258.1H102.238ZM113.466 258.1C114.136 258.1 114.716 258.225 115.206 258.475C115.706 258.715 116.096 259.06 116.376 259.51C116.656 259.96 116.796 260.495 116.796 261.115C116.796 261.735 116.656 262.27 116.376 262.72C116.096 263.17 115.706 263.52 115.206 263.77C114.716 264.01 114.136 264.13 113.466 264.13H111.171V268H109.971V258.1H113.466ZM113.286 263.005C114.066 263.005 114.636 262.845 114.996 262.525C115.356 262.195 115.536 261.725 115.536 261.115C115.536 260.495 115.356 260.025 114.996 259.705C114.636 259.385 114.066 259.225 113.286 259.225H111.171V263.005H113.286ZM124.826 266.875H130.496V268H123.626V258.1H124.826V266.875ZM138.291 258.1V268H137.091V258.1H138.291ZM152.959 259.225H147.229V262.42H151.699V263.545H147.229V268H146.029V258.1H152.959V259.225ZM166.494 258.1L162.954 264.13V268H161.754V264.13L158.214 258.1H159.639L161.559 261.49L162.354 262.9L163.149 261.49L165.069 258.1H166.494ZM173.675 258.1V268H172.475V258.1H173.675ZM189.184 258.1V268H187.699L183.559 261.37L182.509 259.51H182.494L182.554 261.01V268H181.414V258.1H182.899L187.024 264.7L188.089 266.605H188.104L188.044 265.09V258.1H189.184ZM200.92 268.15C199.98 268.15 199.165 267.945 198.475 267.535C197.795 267.115 197.265 266.525 196.885 265.765C196.515 265.005 196.33 264.1 196.33 263.05C196.33 262 196.525 261.095 196.915 260.335C197.315 259.575 197.87 258.99 198.58 258.58C199.29 258.16 200.105 257.95 201.025 257.95C202.005 257.95 202.8 258.135 203.41 258.505C204.03 258.875 204.53 259.445 204.91 260.215L203.815 260.815C203.595 260.245 203.245 259.815 202.765 259.525C202.295 259.225 201.715 259.075 201.025 259.075C200.355 259.075 199.76 259.235 199.24 259.555C198.73 259.865 198.325 260.32 198.025 260.92C197.735 261.51 197.59 262.22 197.59 263.05C197.59 263.88 197.715 264.595 197.965 265.195C198.225 265.785 198.605 266.24 199.105 266.56C199.615 266.87 200.235 267.025 200.965 267.025C201.375 267.025 201.755 266.975 202.105 266.875C202.465 266.765 202.775 266.605 203.035 266.395C203.305 266.185 203.515 265.92 203.665 265.6C203.815 265.28 203.89 264.905 203.89 264.475V264.13H200.74V263.005H204.985V268H204.04L203.98 266.155L204.235 266.2C203.975 266.82 203.565 267.3 203.005 267.64C202.445 267.98 201.75 268.15 200.92 268.15ZM229.876 265.465C229.666 266.025 229.366 266.51 228.976 266.92C228.586 267.32 228.126 267.625 227.596 267.835C227.076 268.045 226.506 268.15 225.886 268.15C224.946 268.15 224.131 267.945 223.441 267.535C222.761 267.115 222.231 266.525 221.851 265.765C221.481 265.005 221.296 264.1 221.296 263.05C221.296 262 221.481 261.095 221.851 260.335C222.231 259.575 222.761 258.99 223.441 258.58C224.131 258.16 224.936 257.95 225.856 257.95C226.496 257.95 227.066 258.04 227.566 258.22C228.066 258.39 228.491 258.65 228.841 259C229.201 259.34 229.486 259.76 229.696 260.26L228.511 260.815C228.291 260.245 227.971 259.815 227.551 259.525C227.141 259.225 226.606 259.075 225.946 259.075C225.276 259.075 224.686 259.235 224.176 259.555C223.666 259.865 223.266 260.315 222.976 260.905C222.696 261.495 222.556 262.21 222.556 263.05C222.556 263.88 222.691 264.595 222.961 265.195C223.231 265.785 223.616 266.24 224.116 266.56C224.616 266.87 225.206 267.025 225.886 267.025C226.546 267.025 227.121 266.86 227.611 266.53C228.101 266.19 228.456 265.685 228.676 265.015L229.876 265.465ZM240.67 257.95C241.61 257.95 242.42 258.16 243.1 258.58C243.79 258.99 244.32 259.575 244.69 260.335C245.07 261.095 245.26 262 245.26 263.05C245.26 264.1 245.07 265.005 244.69 265.765C244.32 266.525 243.79 267.115 243.1 267.535C242.42 267.945 241.61 268.15 240.67 268.15C239.73 268.15 238.915 267.945 238.225 267.535C237.545 267.115 237.015 266.525 236.635 265.765C236.265 265.005 236.08 264.1 236.08 263.05C236.08 262 236.265 261.095 236.635 260.335C237.015 259.575 237.545 258.99 238.225 258.58C238.915 258.16 239.73 257.95 240.67 257.95ZM240.67 259.075C239.99 259.075 239.4 259.235 238.9 259.555C238.4 259.865 238.015 260.32 237.745 260.92C237.475 261.51 237.34 262.22 237.34 263.05C237.34 263.88 237.475 264.595 237.745 265.195C238.015 265.785 238.4 266.24 238.9 266.56C239.4 266.87 239.99 267.025 240.67 267.025C241.36 267.025 241.95 266.87 242.44 266.56C242.94 266.24 243.325 265.785 243.595 265.195C243.865 264.595 244 263.88 244 263.05C244 262.22 243.865 261.51 243.595 260.92C243.325 260.32 242.94 259.865 242.44 259.555C241.95 259.235 241.36 259.075 240.67 259.075ZM261.97 258.1V268H260.83V261.775L260.965 259.165H260.95L257.695 268H256.675L253.42 259.165H253.405L253.54 261.775V268H252.4V258.1H254.245L256.42 264.115L257.17 266.59H257.2L257.965 264.13L260.125 258.1H261.97ZM273.198 258.1C273.868 258.1 274.448 258.225 274.938 258.475C275.438 258.715 275.828 259.06 276.108 259.51C276.388 259.96 276.528 260.495 276.528 261.115C276.528 261.735 276.388 262.27 276.108 262.72C275.828 263.17 275.438 263.52 274.938 263.77C274.448 264.01 273.868 264.13 273.198 264.13H270.903V268H269.703V258.1H273.198ZM273.018 263.005C273.798 263.005 274.368 262.845 274.728 262.525C275.088 262.195 275.268 261.725 275.268 261.115C275.268 260.495 275.088 260.025 274.728 259.705C274.368 259.385 273.798 259.225 273.018 259.225H270.903V263.005H273.018ZM284.558 266.875H290.228V268H283.358V258.1H284.558V266.875ZM296.823 268V258.1H303.768V259.225H298.023V262.42H302.493V263.545H298.023V266.875H303.993V268H296.823ZM317.804 268H316.424L313.739 263.92L311.039 268H309.644L313.109 262.96L309.944 258.1H311.354L313.859 261.955L316.394 258.1H317.699L314.489 262.9L317.804 268ZM325.597 258.1V268H324.397V258.1H325.597ZM340.296 258.1V259.225H336.846V268H335.646V259.225H332.196V258.1H340.296ZM353.699 258.1L350.159 264.13V268H348.959V264.13L345.419 258.1H346.844L348.764 261.49L349.559 262.9L350.354 261.49L352.274 258.1H353.699Z" fill="white"/>
<path d="M170 95.7692L192.09 84H207V109.78L192.09 135V109.78L170 95.7692Z" fill="#C0C0C0" stroke="#F5F5F5"/>
<path d="M213 120.538L235.09 109H250V134.275L235.09 159V134.275L213 120.538Z" fill="#C0C0C0" stroke="#F5F5F5"/>
<path d="M204 63.5385L226.09 52H241V77.2747L226.09 102V77.2747L204 63.5385Z" fill="#C0C0C0" stroke="#F5F5F5"/>
<defs>
<filter id="filter0_d_49_25" x="89" y="191" width="248.481" height="43.6" filterUnits="userSpaceOnUse" color-interpolation-filters="sRGB">
<feFlood flood-opacity="0" result="BackgroundImageFix"/>
<feColorMatrix in="SourceAlpha" type="matrix" values="0 0 0 0 0 0 0 0 0 0 0 0 0 0 0 0 0 0 127 0" result="hardAlpha"/>
<feOffset dy="4"/>
<feGaussianBlur stdDeviation="2"/>
<feComposite in2="hardAlpha" operator="out"/>
<feColorMatrix type="matrix" values="0 0 0 0 0 0 0 0 0 0 0 0 0 0 0 0 0 0 0.25 0"/>
<feBlend mode="normal" in2="BackgroundImageFix" result="effect1_dropShadow_49_25"/>
<feBlend mode="normal" in="SourceGraphic" in2="effect1_dropShadow_49_25" result="shape"/>
</filter>
<linearGradient id="paint0_linear_49_25" x1="210.5" y1="0" x2="210.5" y2="365" gradientUnits="userSpaceOnUse">
<stop stop-color="#007BFF"/>
<stop offset="1"/>
</linearGradient>
<linearGradient id="paint1_linear_49_25" x1="87" y1="209.5" x2="335" y2="209.5" gradientUnits="userSpaceOnUse">
<stop stop-color="white"/>
<stop offset="1" stop-color="#C0C0C0"/>
</linearGradient>
</defs>
</svg>
