<svg width="163" height="50" viewBox="0 0 163 50" fill="none" xmlns="http://www.w3.org/2000/svg">
<path d="M1 20.0212L10.5997 14.9065H17.0794V26.1101L10.5997 37.0701V26.1101L1 20.0212Z" fill="#007BFF" stroke="#F5F5F5"/>
<path d="M19.687 30.7854L29.2867 25.771H35.7665V36.7549L29.2867 47.5V36.7549L19.687 30.7854Z" fill="#007BFF" stroke="#F5F5F5"/>
<path d="M15.7756 6.01438L25.3753 1H31.8551V11.9839L25.3753 22.729V11.9839L15.7756 6.01438Z" fill="#007BFF" stroke="#F5F5F5"/>
<path d="M45.88 28V11.2H48.064V26.68H56.728V28H45.88ZM69.9175 11.2H80.7655V12.52H72.1015V18.544H79.5415V19.648H72.1015V26.68H80.7655V28H69.9175V11.2ZM95.587 11.2L103.291 25.624H103.387L111.163 11.2H112.819V28H110.635V14.392H110.539L102.955 28.288H102.523L95.107 14.296H95.011V28H93.955V11.2H95.587ZM129.148 11.2H131.332V28H129.148V11.2ZM148.183 11.2L153.319 17.8H153.439L158.503 11.2H159.775L154.039 18.712L161.311 28H158.599L152.743 20.488H152.647L146.911 28H145.615L152.047 19.624L145.495 11.2H148.183Z" fill="url(#paint0_linear_115_19)"/>
<defs>
<linearGradient id="paint0_linear_115_19" x1="43" y1="20" x2="163" y2="20" gradientUnits="userSpaceOnUse">
<stop/>
</linearGradient>
</defs>
</svg>
