<svg width="421" height="365" viewBox="0 0 421 365" fill="none" xmlns="http://www.w3.org/2000/svg">
<rect width="421" height="365" rx="30" fill="url(#paint0_linear_49_41)"/>
<g filter="url(#filter0_d_49_41)">
<path d="M90 247V212H94.55V244.25H112.6V247H90ZM140.078 212H162.678V214.75H144.628V227.3H160.128V229.6H144.628V244.25H162.678V247H140.078V212ZM193.556 212L209.606 242.05H209.806L226.006 212H229.456V247H224.906V218.65H224.706L208.906 247.6H208.006L192.556 218.45H192.356V247H190.156V212H193.556ZM263.475 212H268.025V247H263.475V212ZM303.131 212L313.831 225.75H314.081L324.631 212H327.281L315.331 227.65L330.481 247H324.831L312.631 231.35H312.431L300.481 247H297.781L311.181 229.55L297.531 212H303.131Z" fill="black"/>
</g>
<path d="M69.8 278.95C70.67 278.95 71.42 279.13 72.05 279.49C72.68 279.84 73.205 280.36 73.625 281.05L72.62 281.83C72.25 281.19 71.83 280.74 71.36 280.48C70.9 280.21 70.34 280.075 69.68 280.075C69.15 280.075 68.71 280.15 68.36 280.3C68.02 280.45 67.77 280.65 67.61 280.9C67.45 281.14 67.37 281.415 67.37 281.725C67.37 282.075 67.48 282.385 67.7 282.655C67.92 282.915 68.36 283.12 69.02 283.27L71.165 283.75C72.115 283.96 72.775 284.28 73.145 284.71C73.525 285.13 73.715 285.655 73.715 286.285C73.715 286.845 73.555 287.345 73.235 287.785C72.925 288.215 72.485 288.55 71.915 288.79C71.345 289.03 70.675 289.15 69.905 289.15C69.185 289.15 68.55 289.055 68 288.865C67.46 288.665 66.995 288.4 66.605 288.07C66.215 287.74 65.895 287.37 65.645 286.96L66.695 286.105C66.885 286.485 67.13 286.82 67.43 287.11C67.73 287.4 68.09 287.625 68.51 287.785C68.94 287.945 69.43 288.025 69.98 288.025C70.49 288.025 70.93 287.965 71.3 287.845C71.68 287.715 71.97 287.53 72.17 287.29C72.37 287.04 72.47 286.74 72.47 286.39C72.47 286.07 72.365 285.785 72.155 285.535C71.945 285.275 71.55 285.08 70.97 284.95L68.645 284.425C68.035 284.285 67.54 284.095 67.16 283.855C66.79 283.605 66.52 283.315 66.35 282.985C66.19 282.645 66.11 282.28 66.11 281.89C66.11 281.36 66.255 280.875 66.545 280.435C66.845 279.985 67.27 279.625 67.82 279.355C68.38 279.085 69.04 278.95 69.8 278.95ZM81.9294 279.1V289H80.7294V279.1H81.9294ZM99.2379 279.1V289H98.0979V282.775L98.2329 280.165H98.2179L94.9629 289H93.9429L90.6879 280.165H90.6729L90.8079 282.775V289H89.6679V279.1H91.5129L93.6879 285.115L94.4379 287.59H94.4679L95.2329 285.13L97.3929 279.1H99.2379ZM110.466 279.1C111.136 279.1 111.716 279.225 112.206 279.475C112.706 279.715 113.096 280.06 113.376 280.51C113.656 280.96 113.796 281.495 113.796 282.115C113.796 282.735 113.656 283.27 113.376 283.72C113.096 284.17 112.706 284.52 112.206 284.77C111.716 285.01 111.136 285.13 110.466 285.13H108.171V289H106.971V279.1H110.466ZM110.286 284.005C111.066 284.005 111.636 283.845 111.996 283.525C112.356 283.195 112.536 282.725 112.536 282.115C112.536 281.495 112.356 281.025 111.996 280.705C111.636 280.385 111.066 280.225 110.286 280.225H108.171V284.005H110.286ZM121.826 287.875H127.496V289H120.626V279.1H121.826V287.875ZM135.291 279.1V289H134.091V279.1H135.291ZM149.959 280.225H144.229V283.42H148.699V284.545H144.229V289H143.029V279.1H149.959V280.225ZM163.494 279.1L159.954 285.13V289H158.754V285.13L155.214 279.1H156.639L158.559 282.49L159.354 283.9L160.149 282.49L162.069 279.1H163.494ZM170.675 279.1V289H169.475V279.1H170.675ZM186.184 279.1V289H184.699L180.559 282.37L179.509 280.51H179.494L179.554 282.01V289H178.414V279.1H179.899L184.024 285.7L185.089 287.605H185.104L185.044 286.09V279.1H186.184ZM197.92 289.15C196.98 289.15 196.165 288.945 195.475 288.535C194.795 288.115 194.265 287.525 193.885 286.765C193.515 286.005 193.33 285.1 193.33 284.05C193.33 283 193.525 282.095 193.915 281.335C194.315 280.575 194.87 279.99 195.58 279.58C196.29 279.16 197.105 278.95 198.025 278.95C199.005 278.95 199.8 279.135 200.41 279.505C201.03 279.875 201.53 280.445 201.91 281.215L200.815 281.815C200.595 281.245 200.245 280.815 199.765 280.525C199.295 280.225 198.715 280.075 198.025 280.075C197.355 280.075 196.76 280.235 196.24 280.555C195.73 280.865 195.325 281.32 195.025 281.92C194.735 282.51 194.59 283.22 194.59 284.05C194.59 284.88 194.715 285.595 194.965 286.195C195.225 286.785 195.605 287.24 196.105 287.56C196.615 287.87 197.235 288.025 197.965 288.025C198.375 288.025 198.755 287.975 199.105 287.875C199.465 287.765 199.775 287.605 200.035 287.395C200.305 287.185 200.515 286.92 200.665 286.6C200.815 286.28 200.89 285.905 200.89 285.475V285.13H197.74V284.005H201.985V289H201.04L200.98 287.155L201.235 287.2C200.975 287.82 200.565 288.3 200.005 288.64C199.445 288.98 198.75 289.15 197.92 289.15ZM226.876 286.465C226.666 287.025 226.366 287.51 225.976 287.92C225.586 288.32 225.126 288.625 224.596 288.835C224.076 289.045 223.506 289.15 222.886 289.15C221.946 289.15 221.131 288.945 220.441 288.535C219.761 288.115 219.231 287.525 218.851 286.765C218.481 286.005 218.296 285.1 218.296 284.05C218.296 283 218.481 282.095 218.851 281.335C219.231 280.575 219.761 279.99 220.441 279.58C221.131 279.16 221.936 278.95 222.856 278.95C223.496 278.95 224.066 279.04 224.566 279.22C225.066 279.39 225.491 279.65 225.841 280C226.201 280.34 226.486 280.76 226.696 281.26L225.511 281.815C225.291 281.245 224.971 280.815 224.551 280.525C224.141 280.225 223.606 280.075 222.946 280.075C222.276 280.075 221.686 280.235 221.176 280.555C220.666 280.865 220.266 281.315 219.976 281.905C219.696 282.495 219.556 283.21 219.556 284.05C219.556 284.88 219.691 285.595 219.961 286.195C220.231 286.785 220.616 287.24 221.116 287.56C221.616 287.87 222.206 288.025 222.886 288.025C223.546 288.025 224.121 287.86 224.611 287.53C225.101 287.19 225.456 286.685 225.676 286.015L226.876 286.465ZM237.67 278.95C238.61 278.95 239.42 279.16 240.1 279.58C240.79 279.99 241.32 280.575 241.69 281.335C242.07 282.095 242.26 283 242.26 284.05C242.26 285.1 242.07 286.005 241.69 286.765C241.32 287.525 240.79 288.115 240.1 288.535C239.42 288.945 238.61 289.15 237.67 289.15C236.73 289.15 235.915 288.945 235.225 288.535C234.545 288.115 234.015 287.525 233.635 286.765C233.265 286.005 233.08 285.1 233.08 284.05C233.08 283 233.265 282.095 233.635 281.335C234.015 280.575 234.545 279.99 235.225 279.58C235.915 279.16 236.73 278.95 237.67 278.95ZM237.67 280.075C236.99 280.075 236.4 280.235 235.9 280.555C235.4 280.865 235.015 281.32 234.745 281.92C234.475 282.51 234.34 283.22 234.34 284.05C234.34 284.88 234.475 285.595 234.745 286.195C235.015 286.785 235.4 287.24 235.9 287.56C236.4 287.87 236.99 288.025 237.67 288.025C238.36 288.025 238.95 287.87 239.44 287.56C239.94 287.24 240.325 286.785 240.595 286.195C240.865 285.595 241 284.88 241 284.05C241 283.22 240.865 282.51 240.595 281.92C240.325 281.32 239.94 280.865 239.44 280.555C238.95 280.235 238.36 280.075 237.67 280.075ZM258.97 279.1V289H257.83V282.775L257.965 280.165H257.95L254.695 289H253.675L250.42 280.165H250.405L250.54 282.775V289H249.4V279.1H251.245L253.42 285.115L254.17 287.59H254.2L254.965 285.13L257.125 279.1H258.97ZM270.198 279.1C270.868 279.1 271.448 279.225 271.938 279.475C272.438 279.715 272.828 280.06 273.108 280.51C273.388 280.96 273.528 281.495 273.528 282.115C273.528 282.735 273.388 283.27 273.108 283.72C272.828 284.17 272.438 284.52 271.938 284.77C271.448 285.01 270.868 285.13 270.198 285.13H267.903V289H266.703V279.1H270.198ZM270.018 284.005C270.798 284.005 271.368 283.845 271.728 283.525C272.088 283.195 272.268 282.725 272.268 282.115C272.268 281.495 272.088 281.025 271.728 280.705C271.368 280.385 270.798 280.225 270.018 280.225H267.903V284.005H270.018ZM281.558 287.875H287.228V289H280.358V279.1H281.558V287.875ZM293.823 289V279.1H300.768V280.225H295.023V283.42H299.493V284.545H295.023V287.875H300.993V289H293.823ZM314.804 289H313.424L310.739 284.92L308.039 289H306.644L310.109 283.96L306.944 279.1H308.354L310.859 282.955L313.394 279.1H314.699L311.489 283.9L314.804 289ZM322.597 279.1V289H321.397V279.1H322.597ZM337.296 279.1V280.225H333.846V289H332.646V280.225H329.196V279.1H337.296ZM350.699 279.1L347.159 285.13V289H345.959V285.13L342.419 279.1H343.844L345.764 282.49L346.559 283.9L347.354 282.49L349.274 279.1H350.699Z" fill="black"/>
<path d="M167 116.769L189.09 105H204V130.78L189.09 156V130.78L167 116.769Z" fill="#007BFF" stroke="#F5F5F5"/>
<path d="M210 141.538L232.09 130H247V155.275L232.09 180V155.275L210 141.538Z" fill="#007BFF"/>
<path d="M201 84.5385L223.09 73H238V98.2747L223.09 123V98.2747L201 84.5385Z" fill="#007BFF" stroke="#F5F5F5"/>
<defs>
<filter id="filter0_d_49_41" x="86" y="212" width="248.481" height="43.6" filterUnits="userSpaceOnUse" color-interpolation-filters="sRGB">
<feFlood flood-opacity="0" result="BackgroundImageFix"/>
<feColorMatrix in="SourceAlpha" type="matrix" values="0 0 0 0 0 0 0 0 0 0 0 0 0 0 0 0 0 0 127 0" result="hardAlpha"/>
<feOffset dy="4"/>
<feGaussianBlur stdDeviation="2"/>
<feComposite in2="hardAlpha" operator="out"/>
<feColorMatrix type="matrix" values="0 0 0 0 0 0 0 0 0 0 0 0 0 0 0 0 0 0 0.25 0"/>
<feBlend mode="normal" in2="BackgroundImageFix" result="effect1_dropShadow_49_41"/>
<feBlend mode="normal" in="SourceGraphic" in2="effect1_dropShadow_49_41" result="shape"/>
</filter>
<linearGradient id="paint0_linear_49_41" x1="210.5" y1="0" x2="210.5" y2="365" gradientUnits="userSpaceOnUse">
<stop offset="1" stop-color="white"/>
</linearGradient>
</defs>
</svg>
